<svg width="79" height="36" viewBox="0 0 79 36" fill="none" xmlns="http://www.w3.org/2000/svg">
<path d="M7.34863 22.8813H18.2349V27H2.22168V2.11719H7.34863V22.8813Z" fill="black"/>
<path d="M20.0977 17.5835C20.0977 15.7492 20.4508 14.1143 21.1572 12.6787C21.8636 11.2432 22.8776 10.1323 24.1992 9.34619C25.5322 8.56006 27.076 8.16699 28.8306 8.16699C31.3257 8.16699 33.3594 8.93034 34.9316 10.457C36.5153 11.9837 37.3983 14.0573 37.5806 16.6777L37.6147 17.9424C37.6147 20.7793 36.8229 23.0579 35.2393 24.7783C33.6556 26.4873 31.5308 27.3418 28.8647 27.3418C26.1987 27.3418 24.0682 26.4873 22.4731 24.7783C20.8895 23.0693 20.0977 20.7451 20.0977 17.8057V17.5835ZM25.0366 17.9424C25.0366 19.6969 25.367 21.0413 26.0278 21.9756C26.6886 22.8984 27.6343 23.3599 28.8647 23.3599C30.061 23.3599 30.9953 22.9041 31.6675 21.9927C32.3397 21.0698 32.6758 19.6001 32.6758 17.5835C32.6758 15.8631 32.3397 14.5301 31.6675 13.5845C30.9953 12.6388 30.0496 12.166 28.8306 12.166C27.6229 12.166 26.6886 12.6388 26.0278 13.5845C25.367 14.5187 25.0366 15.9714 25.0366 17.9424Z" fill="black"/>
<path d="M39.939 17.6177C39.939 14.7808 40.6112 12.4964 41.9556 10.7646C43.3114 9.03288 45.1343 8.16699 47.4243 8.16699C49.4523 8.16699 51.0303 8.86198 52.1582 10.252L52.3633 8.50879H56.8408V26.3848C56.8408 28.0026 56.4705 29.4097 55.73 30.606C55.0008 31.8022 53.9697 32.7137 52.6367 33.3403C51.3037 33.967 49.7428 34.2803 47.9541 34.2803C46.5983 34.2803 45.2767 34.0068 43.9893 33.46C42.7018 32.9245 41.7277 32.2295 41.0669 31.375L43.2544 28.3672C44.4849 29.7458 45.9774 30.4351 47.7319 30.4351C49.0422 30.4351 50.0618 30.0819 50.791 29.3755C51.5202 28.6805 51.8848 27.6893 51.8848 26.4019V25.4106C50.7454 26.6981 49.2472 27.3418 47.3901 27.3418C45.1685 27.3418 43.3683 26.4759 41.9897 24.7441C40.6226 23.001 39.939 20.6938 39.939 17.8228V17.6177ZM44.8779 17.9766C44.8779 19.6514 45.214 20.9673 45.8862 21.9243C46.5584 22.87 47.4813 23.3428 48.6548 23.3428C50.1587 23.3428 51.2354 22.7788 51.8848 21.6509V13.875C51.224 12.7471 50.1587 12.1831 48.689 12.1831C47.5041 12.1831 46.5698 12.6673 45.8862 13.6357C45.214 14.6042 44.8779 16.0511 44.8779 17.9766Z" fill="black"/>
<path d="M59.8828 17.5835C59.8828 15.7492 60.236 14.1143 60.9424 12.6787C61.6488 11.2432 62.6628 10.1323 63.9844 9.34619C65.3174 8.56006 66.8612 8.16699 68.6157 8.16699C71.1108 8.16699 73.1445 8.93034 74.7168 10.457C76.3005 11.9837 77.1834 14.0573 77.3657 16.6777L77.3999 17.9424C77.3999 20.7793 76.6081 23.0579 75.0244 24.7783C73.4408 26.4873 71.3159 27.3418 68.6499 27.3418C65.9839 27.3418 63.8534 26.4873 62.2583 24.7783C60.6746 23.0693 59.8828 20.7451 59.8828 17.8057V17.5835ZM64.8218 17.9424C64.8218 19.6969 65.1522 21.0413 65.813 21.9756C66.4738 22.8984 67.4194 23.3599 68.6499 23.3599C69.8462 23.3599 70.7804 22.9041 71.4526 21.9927C72.1248 21.0698 72.4609 19.6001 72.4609 17.5835C72.4609 15.8631 72.1248 14.5301 71.4526 13.5845C70.7804 12.6388 69.8348 12.166 68.6157 12.166C67.408 12.166 66.4738 12.6388 65.813 13.5845C65.1522 14.5187 64.8218 15.9714 64.8218 17.9424Z" fill="black"/>
</svg>
